const short fuwa[] = {
    NOTE_E4, 159,
    NOTE_E4, 159,
    NOTE_E4, 159,
    NOTE_E4, 159,
    NOTE_E4, 159,
    NOTE_REST, 159,
    NOTE_E4, 159,
    NOTE_REST, 159,
    NOTE_A3, 159,
    NOTE_A3, 159,
    NOTE_A3, 159,
    NOTE_A3, 159,
    NOTE_B3, 159,
    NOTE_B3, 159,
    NOTE_B3, 159,
    NOTE_B3, 159,
    NOTE_E4, 159,
    NOTE_E4, 159,
    NOTE_E4, 159,
    NOTE_E4, 159,
    NOTE_E4, 159,
    NOTE_REST, 159,
    NOTE_E4, 159,
    NOTE_REST, 159,
    NOTE_A3, 159,
    NOTE_A3, 159,
    NOTE_A3, 159,
    NOTE_A3, 159,
    NOTE_B3, 159,
    NOTE_B3, 159,
    NOTE_B3, 159,
    NOTE_B3, 159,
    NOTE_E4, 159,
    NOTE_E4, 159,
    NOTE_E4, 159,
    NOTE_E4, 159,
    NOTE_E4, 159,
    NOTE_REST, 159,
    NOTE_E4, 159,
    NOTE_REST, 159,
    NOTE_A3, 159,
    NOTE_A3, 159,
    NOTE_A3, 159,
    NOTE_A3, 159,
    NOTE_B3, 159,
    NOTE_B3, 159,
    NOTE_B3, 159,
    NOTE_B3, 159,
    NOTE_E4, 159,
    NOTE_E4, 159,
    NOTE_E4, 159,
    NOTE_E4, 159,
    NOTE_E4, 159,
    NOTE_REST, 159,
    NOTE_E4, 159,
    NOTE_REST, 159,
    NOTE_A3, 159,
    NOTE_A3, 159,
    NOTE_A3, 159,
    NOTE_A3, 159,
    NOTE_B3, 159,
    NOTE_B3, 159,
    NOTE_B3, 159,
    NOTE_B3, 159,
    NOTE_REST, 159,
    NOTE_E4, 159,
    NOTE_E4, 159,
    NOTE_E4, 159,
    NOTE_E4, 159,
    NOTE_E4, 159,
    NOTE_E4, 159,
    NOTE_E4, 319,
    NOTE_E4, 159,
    NOTE_E4, 159,
    NOTE_E4, 159,
    NOTE_E4, 159,
    NOTE_E4, 159,
    NOTE_FS4, 159,
    NOTE_E4, 159,
    NOTE_GS4, 159,
    NOTE_E4, 159,
    NOTE_E4, 319,
    NOTE_REST, 159,
    NOTE_B3, 319,
    NOTE_B3, 478,
    NOTE_B3, 319,
    NOTE_B3, 319,
    NOTE_B3, 319,
    NOTE_REST, 159,
    NOTE_E4, 159,
    NOTE_E4, 159,
    NOTE_E4, 159,
    NOTE_E4, 159,
    NOTE_E4, 159,
    NOTE_E4, 159,
    NOTE_E4, 159,
    NOTE_E4, 159,
    NOTE_E4, 159,
    NOTE_E4, 159,
    NOTE_E4, 159,
    NOTE_E4, 159,
    NOTE_E4, 159,
    NOTE_FS4, 159,
    NOTE_E4, 159,
    NOTE_DS4, 638,
    NOTE_E4, 319,
    NOTE_E4, 159,
    NOTE_FS4, 478,
    NOTE_REST, 159,
    NOTE_GS4, 319,
    NOTE_GS4, 159,
    NOTE_FS4, 159,
    NOTE_E4, 159,
    NOTE_CS4, 319,
    NOTE_E4, 159,
    NOTE_GS5, 319,
    NOTE_GS5, 159,
    NOTE_FS5, 159,
    NOTE_E5, 159,
    NOTE_CS5, 319,
    NOTE_E5, 159,
    NOTE_GS4, 319,
    NOTE_GS4, 159,
    NOTE_FS4, 159,
    NOTE_E4, 159,
    NOTE_B3, 319,
    NOTE_E4, 159,
    NOTE_GS5, 319,
    NOTE_GS5, 159,
    NOTE_FS5, 159,
    NOTE_E5, 159,
    NOTE_B4, 319,
    NOTE_E5, 159,
    NOTE_GS4, 319,
    NOTE_GS4, 159,
    NOTE_FS4, 159,
    NOTE_E4, 159,
    NOTE_E4, 319,
    NOTE_CS4, 159,
    NOTE_E4, 319,
    NOTE_E4, 319,
    NOTE_FS4, 319,
    NOTE_DS4, 319,
    NOTE_CS4, 319,
    NOTE_DS4, 319,
    NOTE_CS4, 319,
    NOTE_B3, 159,
    NOTE_B3, 319,
    NOTE_GS3, 319,
    NOTE_GS3, 638,
    NOTE_GS4, 319,
    NOTE_GS4, 159,
    NOTE_FS4, 159,
    NOTE_E4, 159,
    NOTE_CS4, 319,
    NOTE_E4, 159,
    NOTE_GS5, 319,
    NOTE_GS5, 159,
    NOTE_FS5, 159,
    NOTE_E5, 159,
    NOTE_CS5, 319,
    NOTE_E5, 159,
    NOTE_GS4, 319,
    NOTE_GS4, 159,
    NOTE_FS4, 159,
    NOTE_E4, 159,
    NOTE_B3, 1276,
    NOTE_B4, 957,
    NOTE_A4, 319,
    NOTE_GS4, 319,
    NOTE_E4, 159,
    NOTE_GS4, 478,
    NOTE_REST, 319,
    NOTE_GS4, 478,
    NOTE_FS4, 478,
    NOTE_E4, 319,
    NOTE_B4, 159,
    NOTE_B3, 159,
    NOTE_DS4, 159,
    NOTE_B4, 159,
    NOTE_B3, 159,
    NOTE_DS4, 159,
    NOTE_B4, 159,
    NOTE_B3, 159,
    NOTE_B4, 159,
    NOTE_REST, 159,
    NOTE_B4, 159,
    NOTE_REST, 159,
    NOTE_GS4, 319,
    NOTE_A4, 319,
    NOTE_B4, 319,
    NOTE_B4, 159,
    NOTE_B4, 319,
    NOTE_GS4, 159,
    NOTE_A4, 159,
    NOTE_B4, 319,
    NOTE_B4, 159,
    NOTE_B4, 319,
    NOTE_GS4, 159,
    NOTE_A4, 159,
    NOTE_B4, 478,
    NOTE_B4, 478,
    NOTE_A4, 159,
    NOTE_GS4, 159,
    NOTE_FS4, 638,
    NOTE_GS4, 319,
    NOTE_FS4, 638,
    NOTE_E4, 478,
    NOTE_GS4, 478,
    NOTE_CS5, 319,
    NOTE_B4, 319,
    NOTE_GS4, 319,
    NOTE_E4, 319,
    NOTE_CS4, 319,
    NOTE_GS4, 957,
    NOTE_FS4, 319,
    NOTE_FS4, 638,
    NOTE_GS4, 319,
    NOTE_A4, 319,
    NOTE_B4, 319,
    NOTE_B4, 159,
    NOTE_B4, 478,
    NOTE_GS4, 159,
    NOTE_A4, 159,
    NOTE_B4, 319,
    NOTE_B4, 159,
    NOTE_B4, 478,
    NOTE_GS4, 159,
    NOTE_A4, 159,
    NOTE_B4, 1276,
    NOTE_C5, 638,
    NOTE_GS4, 319,
    NOTE_FS4, 319,
    NOTE_E4, 638,
    NOTE_GS4, 638,
    NOTE_A4, 478,
    NOTE_GS4, 478,
    NOTE_FS4, 319,
    NOTE_E4, 638,
    NOTE_REST, 638,
    NOTE_REST, 638,
    NOTE_E4, 159,
    NOTE_REST, 159,
    NOTE_E4, 159,
    NOTE_REST, 159,
    NOTE_GS4, 319,
    NOTE_E4, 319,
    NOTE_E5, 159,
    NOTE_REST, 159,
    NOTE_E5, 159,
    NOTE_REST, 159,
    NOTE_GS5, 319,
    NOTE_E5, 319,
    NOTE_E4, 159,
    NOTE_REST, 159,
    NOTE_E4, 159,
    NOTE_REST, 159,
    NOTE_GS4, 319,
    NOTE_E4, 319,
    NOTE_E5, 159,
    NOTE_REST, 159,
    NOTE_E5, 159,
    NOTE_REST, 159,
    NOTE_GS5, 319,
    NOTE_E5, 319,
    NOTE_E4, 159,
    NOTE_REST, 159,
    NOTE_E4, 159,
    NOTE_REST, 159,
    NOTE_GS4, 319,
    NOTE_E4, 319,
    NOTE_E5, 159,
    NOTE_REST, 159,
    NOTE_E5, 159,
    NOTE_REST, 159,
    NOTE_GS5, 319,
    NOTE_E5, 319,
    NOTE_REST, 638,
    NOTE_REST, 159,
    NOTE_E4, 159,
    NOTE_E4, 159,
    NOTE_E4, 159,
    NOTE_E4, 159,
    NOTE_E4, 159,
    NOTE_E4, 159,
    NOTE_E4, 319,
    NOTE_E4, 159,
    NOTE_E4, 159,
    NOTE_E4, 159,
    NOTE_E4, 159,
    NOTE_E4, 159,
    NOTE_FS4, 159,
    NOTE_E4, 159,
    NOTE_GS4, 159,
    NOTE_E4, 159,
    NOTE_E4, 319,
    NOTE_REST, 159,
    NOTE_B3, 319,
    NOTE_B3, 478,
    NOTE_B3, 319,
    NOTE_B3, 319,
    NOTE_B3, 319,
    NOTE_REST, 159,
    NOTE_E4, 159,
    NOTE_E4, 159,
    NOTE_E4, 159,
    NOTE_E4, 159,
    NOTE_E4, 159,
    NOTE_E4, 159,
    NOTE_E4, 159,
    NOTE_E4, 159,
    NOTE_E4, 159,
    NOTE_E4, 159,
    NOTE_E4, 159,
    NOTE_E4, 159,
    NOTE_E4, 159,
    NOTE_FS4, 159,
    NOTE_E4, 159,
    NOTE_DS4, 638,
    NOTE_E4, 319,
    NOTE_E4, 159,
    NOTE_FS4, 478,
    NOTE_REST, 159,
    NOTE_GS4, 319,
    NOTE_GS4, 159,
    NOTE_FS4, 159,
    NOTE_E4, 159,
    NOTE_CS4, 319,
    NOTE_E4, 159,
    NOTE_GS5, 319,
    NOTE_GS5, 159,
    NOTE_FS5, 159,
    NOTE_E5, 159,
    NOTE_CS5, 319,
    NOTE_E5, 159,
    NOTE_GS4, 319,
    NOTE_GS4, 159,
    NOTE_FS4, 159,
    NOTE_E4, 159,
    NOTE_B3, 319,
    NOTE_E4, 159,
    NOTE_GS5, 319,
    NOTE_GS5, 159,
    NOTE_FS5, 159,
    NOTE_E5, 159,
    NOTE_B4, 319,
    NOTE_E5, 159,
    NOTE_GS4, 319,
    NOTE_GS4, 159,
    NOTE_FS4, 159,
    NOTE_E4, 159,
    NOTE_E4, 319,
    NOTE_CS4, 159,
    NOTE_E4, 319,
    NOTE_E4, 319,
    NOTE_FS4, 319,
    NOTE_DS4, 319,
    NOTE_CS4, 319,
    NOTE_DS4, 319,
    NOTE_CS4, 319,
    NOTE_B3, 159,
    NOTE_B3, 319,
    NOTE_GS3, 319,
    NOTE_GS3, 638,
    NOTE_GS4, 319,
    NOTE_GS4, 159,
    NOTE_FS4, 159,
    NOTE_E4, 159,
    NOTE_CS4, 319,
    NOTE_E4, 159,
    NOTE_GS5, 319,
    NOTE_GS5, 159,
    NOTE_FS5, 159,
    NOTE_E5, 159,
    NOTE_CS5, 319,
    NOTE_E5, 159,
    NOTE_GS4, 319,
    NOTE_GS4, 159,
    NOTE_FS4, 159,
    NOTE_E4, 159,
    NOTE_B3, 1276,
    NOTE_B4, 957,
    NOTE_A4, 319,
    NOTE_GS4, 319,
    NOTE_E4, 159,
    NOTE_GS4, 478,
    NOTE_REST, 319,
    NOTE_GS4, 478,
    NOTE_FS4, 478,
    NOTE_E4, 319,
    NOTE_B4, 159,
    NOTE_B3, 159,
    NOTE_DS4, 159,
    NOTE_B4, 159,
    NOTE_B3, 159,
    NOTE_DS4, 159,
    NOTE_B4, 159,
    NOTE_B3, 159,
    NOTE_B4, 159,
    NOTE_REST, 159,
    NOTE_B4, 159,
    NOTE_REST, 159,
    NOTE_GS4, 319,
    NOTE_A4, 319,
    NOTE_B4, 319,
    NOTE_B4, 159,
    NOTE_B4, 319,
    NOTE_GS4, 159,
    NOTE_A4, 159,
    NOTE_B4, 319,
    NOTE_B4, 159,
    NOTE_B4, 319,
    NOTE_GS4, 159,
    NOTE_A4, 159,
    NOTE_B4, 478,
    NOTE_B4, 478,
    NOTE_A4, 159,
    NOTE_GS4, 159,
    NOTE_FS4, 638,
    NOTE_GS4, 319,
    NOTE_FS4, 638,
    NOTE_E4, 478,
    NOTE_GS4, 478,
    NOTE_CS5, 319,
    NOTE_B4, 319,
    NOTE_GS4, 319,
    NOTE_E4, 319,
    NOTE_CS4, 319,
    NOTE_GS4, 957,
    NOTE_FS4, 319,
    NOTE_FS4, 638,
    NOTE_GS4, 319,
    NOTE_A4, 319,
    NOTE_B4, 319,
    NOTE_B4, 159,
    NOTE_B4, 478,
    NOTE_GS4, 159,
    NOTE_A4, 159,
    NOTE_B4, 319,
    NOTE_B4, 159,
    NOTE_B4, 478,
    NOTE_GS4, 159,
    NOTE_A4, 159,
    NOTE_B4, 1276,
    NOTE_C5, 638,
    NOTE_GS4, 319,
    NOTE_FS4, 319,
    NOTE_E4, 638,
    NOTE_GS4, 638,
    NOTE_A4, 478,
    NOTE_GS4, 478,
    NOTE_FS4, 319,
    NOTE_E4, 638,
    NOTE_REST, 638,
    NOTE_REST, 638,
    NOTE_E4, 159,
    NOTE_REST, 159,
    NOTE_E4, 159,
    NOTE_REST, 159,
    NOTE_GS4, 319,
    NOTE_E4, 319,
    NOTE_E5, 159,
    NOTE_REST, 159,
    NOTE_E5, 159,
    NOTE_REST, 159,
    NOTE_GS5, 319,
    NOTE_E5, 319,
    NOTE_E4, 159,
    NOTE_REST, 159,
    NOTE_E4, 159,
    NOTE_REST, 159,
    NOTE_GS4, 319,
    NOTE_E4, 319,
    NOTE_E5, 159,
    NOTE_REST, 159,
    NOTE_E5, 159,
    NOTE_REST, 159,
    NOTE_GS5, 319,
    NOTE_E5, 319,
    NOTE_E4, 159,
    NOTE_REST, 159,
    NOTE_E4, 159,
    NOTE_REST, 159,
    NOTE_GS4, 319,
    NOTE_E4, 319,
    NOTE_E5, 159,
    NOTE_REST, 159,
    NOTE_E5, 159,
    NOTE_REST, 159,
    NOTE_GS5, 319,
    NOTE_E5, 319,
    NOTE_REST, 638,
    NOTE_REST, 1595,
    NOTE_A5, 159,
    NOTE_B5, 159,
    NOTE_A5, 159,
    NOTE_G5, 159,
    NOTE_E5, 159,
    NOTE_D5, 159,
    NOTE_B4, 159,
    NOTE_CS5, 159,
    NOTE_B4, 159,
    NOTE_A4, 159,
    NOTE_G4, 159,
    NOTE_E4, 159,
    NOTE_D4, 159,
    NOTE_B3, 159,
    NOTE_CS4, 159,
    NOTE_B3, 159,
    NOTE_A3, 159,
    NOTE_G3, 159,
    NOTE_E3, 159,
    NOTE_D3, 159,
    NOTE_B2, 159,
    NOTE_D3, 159,
    NOTE_B2, 159,
    NOTE_A2, 159,
    NOTE_GS2, 239,
    NOTE_E2, 319,
    NOTE_B1, 398,
    NOTE_E4, 2552,
    NOTE_E5, 319,
    TONES_END
};
